<svg version="1.1" id="Layer_1" xmlns="http://www.w3.org/2000/svg" xmlns:xlink="http://www.w3.org/1999/xlink" x="0px" y="0px"
	 width="100%" viewBox="0 0 93 65" enable-background="new 0 0 93 65" xml:space="preserve">
<path fill="#D8F8F2" opacity="1.000000" stroke="none" 
	d="
M63.000000,66.000000 
	C42.032486,66.000000 21.564968,66.000000 1.048726,66.000000 
	C1.048726,44.400238 1.048726,22.800346 1.048726,1.100225 
	C31.883772,1.100225 62.767979,1.100225 93.826096,1.100225 
	C93.826096,22.665524 93.826096,44.332649 93.826096,66.000000 
	C83.801071,66.000000 73.650536,66.000000 63.000000,66.000000 
M51.926117,14.997889 
	C53.933823,13.877695 55.941528,12.757501 58.196552,11.499315 
	C57.041962,8.688437 55.925972,5.971539 54.813313,3.262741 
	C42.518948,7.809514 32.408417,18.811975 29.356876,29.906569 
	C28.007183,27.487608 26.657490,25.068647 25.175606,22.412766 
	C22.299484,23.573738 19.611078,24.658937 16.615612,25.868084 
	C22.571497,38.724262 31.328550,47.520405 44.515022,51.689377 
	C42.758675,52.582954 41.002327,53.476528 39.107178,54.440723 
	C40.298717,57.352055 41.403522,60.051453 42.595501,62.963852 
	C53.748886,58.396660 61.319660,50.635620 66.279221,40.326385 
	C70.359871,45.798306 73.284607,40.144440 77.766876,40.095760 
	C74.495331,35.261097 72.181656,31.008505 69.076370,27.445900 
	C64.269234,21.930805 58.789165,17.096977 51.062649,15.508464 
	C51.062649,15.508464 51.233875,15.073729 51.926117,14.997889 
z"/>
<path fill="#111212" opacity="1.000000" stroke="none" 
	d="
M51.072613,15.975522 
	C58.789165,17.096977 64.269234,21.930805 69.076370,27.445900 
	C72.181656,31.008505 74.495331,35.261097 77.766876,40.095760 
	C73.284607,40.144440 70.359871,45.798306 66.279221,40.326385 
	C61.319660,50.635620 53.748886,58.396660 42.595501,62.963852 
	C41.403522,60.051453 40.298717,57.352055 39.107178,54.440723 
	C41.002327,53.476528 42.758675,52.582954 45.020088,51.361198 
	C46.350307,50.097805 47.175457,49.162594 48.367825,48.144012 
	C53.989056,43.977638 59.243076,39.894646 65.739426,34.846214 
	C58.869194,28.633751 53.184765,23.493551 47.927094,18.218653 
	C48.861774,17.427181 49.369694,16.770412 49.975548,16.045746 
	C50.073479,15.977846 50.273293,15.847927 50.469559,15.902148 
	C50.665825,15.956369 51.072613,15.975522 51.072613,15.975522 
z"/>
<path fill="#121313" opacity="1.000000" stroke="none" 
	d="
M48.000610,48.227386 
	C47.175457,49.162594 46.350307,50.097805 45.155586,51.058998 
	C31.328550,47.520405 22.571497,38.724262 16.615612,25.868084 
	C19.611078,24.658937 22.299484,23.573738 25.175606,22.412766 
	C26.657490,25.068647 28.007183,27.487608 30.013084,30.101196 
	C31.740608,30.529547 32.811928,30.763269 33.823189,31.334768 
	C33.619160,33.106121 32.802723,35.273144 33.438602,35.856152 
	C38.129868,40.157387 43.110813,44.142681 48.000610,48.227386 
z"/>
<path fill="#111212" opacity="1.000000" stroke="none" 
	d="
M33.883244,30.996990 
	C32.811928,30.763269 31.740608,30.529547 30.363888,30.160151 
	C32.408417,18.811975 42.518948,7.809514 54.813313,3.262741 
	C55.925972,5.971539 57.041962,8.688437 58.196552,11.499315 
	C55.941528,12.757501 53.933823,13.877695 51.362377,15.091897 
	C50.489037,15.300048 50.313923,15.520721 50.273293,15.847927 
	C50.273293,15.847927 50.073479,15.977846 49.639698,16.086586 
	C48.614658,16.874374 48.023399,17.553421 47.356468,18.559982 
	C45.742191,19.668825 43.892208,20.135918 42.725212,21.292278 
	C39.620682,24.368528 36.810486,27.741819 33.883244,30.996990 
z"/>
<path fill="#121313" opacity="1.000000" stroke="none" 
	d="
M50.469559,15.902148 
	C50.313923,15.520721 50.489037,15.300048 51.016258,15.129817 
	C51.233875,15.073729 51.062649,15.508464 51.067631,15.741993 
	C51.072613,15.975522 50.665825,15.956369 50.469559,15.902148 
z"/>
<path fill="#D2F0EC" opacity="1.000000" stroke="none" 
	d="
M33.823189,31.334766 
	C36.810486,27.741819 39.620682,24.368528 42.725212,21.292278 
	C43.892208,20.135918 45.742191,19.668825 47.385498,18.581856 
	C47.490196,18.276217 47.500332,18.353354 47.500332,18.353354 
	C53.184765,23.493551 58.869194,28.633751 65.739426,34.846214 
	C59.243076,39.894646 53.989056,43.977638 48.367825,48.144012 
	C43.110813,44.142681 38.129868,40.157387 33.438602,35.856152 
	C32.802723,35.273144 33.619160,33.106121 33.823189,31.334766 
M48.341343,28.370798 
	C46.559883,29.596928 43.986992,30.442921 43.174515,32.134464 
	C41.809860,34.975620 43.089718,38.213882 46.310879,38.684666 
	C48.362461,38.984516 51.781151,37.681454 52.750149,36.023598 
	C54.766163,32.574406 52.979801,29.725243 48.341343,28.370798 
z"/>
<path fill="#121313" opacity="1.000000" stroke="none" 
	d="
M47.927094,18.218653 
	C47.500332,18.353354 47.490196,18.276217 47.461166,18.254343 
	C48.023399,17.553421 48.614658,16.874374 49.541763,16.154486 
	C49.369694,16.770412 48.861774,17.427181 47.927094,18.218653 
z"/>
<path fill="#151717" opacity="1.000000" stroke="none" 
	d="
M48.708725,28.436237 
	C52.979801,29.725243 54.766163,32.574406 52.750149,36.023598 
	C51.781151,37.681454 48.362461,38.984516 46.310879,38.684666 
	C43.089718,38.213882 41.809860,34.975620 43.174515,32.134464 
	C43.986992,30.442921 46.559883,29.596928 48.708725,28.436237 
z"/>
</svg>